<svg
  class="NuxtLogo"
  width="200px"
  height="200px"
  viewBox="0 0 890 173"
  fill="none"
  xmlns="http://www.w3.org/2000/svg"
>
  <path
    d="M99.43 0H0V172.87H172.83V88.26L99.43 0ZM130.73 130.16H43.22V42.66H86.96V86.4H130.73V130.16Z"
    fill="#2FBBA7"
  />
  <path
    d="M307.42 126.751V145.111H244V50.191H265.37V126.751H307.42Z"
    fill="#4D5061"
  />
  <path
    d="M408.77 97.5811C408.913 104.889 407.681 112.158 405.14 119.011C402.957 124.813 399.573 130.088 395.21 134.491C390.958 138.68 385.837 141.882 380.21 143.871C374.205 146.007 367.873 147.073 361.5 147.021C355.242 147.06 349.027 145.994 343.14 143.871C337.511 141.85 332.377 138.652 328.08 134.491C323.638 130.111 320.181 124.833 317.94 119.011C315.358 112.167 314.106 104.894 314.25 97.5811C314.1 90.2518 315.402 82.9653 318.08 76.1411C320.42 70.3046 323.94 65.0141 328.42 60.6011C332.724 56.4231 337.863 53.2026 343.5 51.151C349.265 49.0408 355.361 47.9742 361.5 48.001C367.754 47.9617 373.967 49.0281 379.85 51.151C385.494 53.1822 390.634 56.4053 394.92 60.6011C399.35 65.0123 402.802 70.3072 405.05 76.1411C407.646 82.985 408.909 90.2625 408.77 97.5811V97.5811ZM336.32 97.5811C336.265 101.842 336.841 106.089 338.03 110.181C339.044 113.685 340.718 116.964 342.96 119.841C345.064 122.501 347.758 124.634 350.83 126.071C354.195 127.515 357.818 128.26 361.48 128.26C365.142 128.26 368.765 127.515 372.13 126.071C375.232 124.647 377.956 122.513 380.08 119.841C382.318 116.961 383.991 113.683 385.01 110.181C386.199 106.089 386.775 101.842 386.72 97.5811C386.772 93.2969 386.195 89.0283 385.01 84.9111C384.002 81.3861 382.329 78.0867 380.08 75.1911C377.956 72.5165 375.233 70.379 372.13 68.9511C368.79 67.4515 365.161 66.7038 361.5 66.7611C357.811 66.6935 354.156 67.4663 350.81 69.021C347.745 70.5005 345.055 72.6543 342.94 75.3211C340.689 78.2191 339.016 81.5222 338.01 85.051C336.837 89.1226 336.268 93.3442 336.32 97.5811Z"
    fill="#4D5061"
  />
  <path
    d="M455.18 89.121C459.02 82.6544 462.687 76.1877 466.18 69.721C469.673 63.2544 472.873 56.7444 475.78 50.191H499.34C494.113 60.4244 488.717 70.331 483.15 79.911C477.583 89.491 471.7 99.1244 465.5 108.811V145.111H444.11V109.111C437.897 99.4444 431.983 89.7777 426.37 80.1111C420.757 70.4444 415.347 60.491 410.14 50.251H434.93C437.85 56.811 440.997 63.321 444.37 69.781C447.743 76.241 451.347 82.6877 455.18 89.121Z"
    fill="#4D5061"
  />
  <path
    d="M560.93 145.111C559.87 141.811 558.737 138.424 557.53 134.951L553.89 124.561H516.82C515.62 128.021 514.42 131.491 513.22 134.971C512.02 138.451 510.897 141.831 509.85 145.111H487.67C491.243 134.884 494.63 125.431 497.83 116.751C501.03 108.071 504.167 99.901 507.24 92.241C510.307 84.5744 513.33 77.2911 516.31 70.3911C519.29 63.4911 522.38 56.7577 525.58 50.191H545.84C548.96 56.7644 552.033 63.4977 555.06 70.3911C558.087 77.2844 561.137 84.5677 564.21 92.241C567.277 99.9144 570.417 108.084 573.63 116.751C576.843 125.418 580.24 134.871 583.82 145.111H560.93ZM535.26 71.691C534.78 73.071 534.09 74.951 533.17 77.321C532.25 79.691 531.17 82.431 530.03 85.541C528.89 88.651 527.55 92.081 526.1 95.821C524.65 99.561 523.18 103.481 521.68 107.581H548.83C547.37 103.461 545.963 99.5277 544.61 95.7811C543.257 92.0344 541.963 88.6044 540.73 85.491C539.497 82.3777 538.42 79.6377 537.5 77.271C536.58 74.9044 535.833 73.0444 535.26 71.691V71.691Z"
    fill="#4D5061"
  />
  <path
    d="M659.42 126.751V145.111H596V50.191H617.37V126.751H659.42Z"
    fill="#4D5061"
  />
  <path
    d="M729.07 145.111C727.15 142.024 724.883 138.691 722.27 135.111C719.657 131.531 716.843 127.918 713.83 124.271C710.823 120.624 707.67 117.131 704.37 113.791C701.274 110.622 697.97 107.662 694.48 104.931V145.131H673.12V50.191H694.5V85.8611C700 80.0877 705.58 74.0544 711.24 67.761C716.9 61.4677 722.137 55.611 726.95 50.191H752.3C745.84 57.8777 739.343 65.2744 732.81 72.381C726.277 79.4877 719.397 86.631 712.17 93.811C720.213 100.597 727.581 108.146 734.17 116.351C741.545 125.5 748.336 135.106 754.5 145.111H729.07Z"
    fill="#4D5061"
  />
  <path
    d="M803.92 147.021C798.044 147.156 792.193 146.207 786.66 144.221C782.126 142.549 778.025 139.88 774.66 136.411C771.463 133.012 769.071 128.938 767.66 124.491C766.102 119.553 765.339 114.399 765.4 109.221V50.221H786.8V107.441C786.725 110.752 787.164 114.054 788.1 117.231C788.809 119.651 790.022 121.893 791.66 123.811C793.135 125.483 795.025 126.735 797.14 127.441C799.414 128.19 801.796 128.559 804.19 128.531C809.397 128.531 813.62 126.934 816.86 123.741C820.1 120.548 821.72 115.114 821.72 107.441V50.191H843.09V109.191C843.145 114.397 842.358 119.577 840.76 124.531C839.314 129.013 836.881 133.114 833.64 136.531C830.237 140.006 826.084 142.656 821.5 144.281C815.849 146.229 809.896 147.157 803.92 147.021V147.021Z"
    fill="#4D5061"
  />
</svg>